<?xml version="1.0" encoding="UTF-8" standalone="no"?>
<!-- Created with Inkscape (http://www.inkscape.org/) -->

<svg
   xmlns:dc="http://purl.org/dc/elements/1.1/"
   xmlns:cc="http://creativecommons.org/ns#"
   xmlns:rdf="http://www.w3.org/1999/02/22-rdf-syntax-ns#"
   xmlns:svg="http://www.w3.org/2000/svg"
   xmlns="http://www.w3.org/2000/svg"
   xmlns:sodipodi="http://sodipodi.sourceforge.net/DTD/sodipodi-0.dtd"
   xmlns:inkscape="http://www.inkscape.org/namespaces/inkscape"
   width="1000mm"
   height="1000mm"
   viewBox="0 0 3543.3071 3543.3071"
   id="svg3336"
   version="1.1"
   inkscape:version="0.91 r13725"
   sodipodi:docname="Logo2.svg">
  <defs
     id="defs3338" />
  <sodipodi:namedview
     id="base"
     pagecolor="#ffffff"
     bordercolor="#666666"
     borderopacity="1.0"
     inkscape:pageopacity="0.0"
     inkscape:pageshadow="2"
     inkscape:zoom="0.061871843"
     inkscape:cx="8267.8226"
     inkscape:cy="2412.8852"
     inkscape:document-units="px"
     inkscape:current-layer="layer1"
     showgrid="false"
     units="mm"
     width="1000mm"
     inkscape:window-width="3840"
     inkscape:window-height="2097"
     inkscape:window-x="-8"
     inkscape:window-y="833"
     inkscape:window-maximized="1" />
  <metadata
     id="metadata3341">
    <rdf:RDF>
      <cc:Work
         rdf:about="">
        <dc:format>image/svg+xml</dc:format>
        <dc:type
           rdf:resource="http://purl.org/dc/dcmitype/StillImage" />
        <dc:title></dc:title>
      </cc:Work>
    </rdf:RDF>
  </metadata>
  <g
     inkscape:label="Layer 1"
     inkscape:groupmode="layer"
     id="layer1"
     transform="translate(0,2490.9449)">
    <path
       style="fill:#000000;fill-opacity:1"
       d="M 1762.0312 100.24219 C 1712.0514 100.37218 1662.2337 109.64949 1620.7285 128.05664 C 1613.5487 131.24074 1519.3732 183.64572 1411.4492 244.51172 C 1161.3019 385.58772 743.89937 620.91238 551.73242 729.20508 C 469.79693 775.37848 394.28875 817.96751 383.93555 823.84961 C 343.03985 847.08401 310.46746 876.96222 281.41406 917.89062 C 248.83752 963.78222 227.57812 1013.4987 217.43164 1067.5215 C 215.20623 1079.3706 215.07053 1114.3578 214.68359 1771.0449 C 214.39234 2265.2367 214.68594 2466.2121 215.71484 2476.5371 C 224.83309 2568.0492 284.49332 2669.7798 359.44531 2721.6211 C 365.2205 2725.6157 462.97284 2781.3103 576.67188 2845.3867 C 690.37092 2909.463 898.86879 3026.9887 1040 3106.5566 C 1181.1312 3186.1246 1366.5918 3290.6857 1452.1367 3338.9141 C 1537.6818 3387.1423 1612.6042 3428.8874 1618.6289 3431.6797 C 1635.5122 3439.5045 1662.5449 3448.0394 1684.0195 3452.3242 C 1700.9608 3455.7045 1710.2707 3457.0149 1734.9902 3459.5039 C 1746.5652 3460.6694 1801.3427 3458.9786 1815.5527 3457.0176 C 1849.9605 3452.2689 1884.2365 3442.7342 1909.2676 3430.9473 C 1915.9248 3427.8125 2051.9038 3351.4231 2211.4434 3261.1934 C 2370.983 3170.9636 2592.4759 3045.7157 2703.6484 2982.8652 C 2814.8208 2920.0146 2962.0512 2836.7737 3030.8281 2797.8848 C 3099.605 2758.996 3161.622 2723.056 3168.6445 2718.0176 C 3185.5507 2705.8878 3219.07 2672.3538 3233.5586 2653.0742 C 3269.1668 2605.691 3292.382 2555.022 3303.918 2499.5059 L 3307.3262 2483.0996 L 3307.748 1789.4199 C 3308.0389 1311.4594 3307.7421 1091.6976 3306.793 1082.7402 C 3296.9061 989.43323 3234.8262 886.00428 3158.4434 835.58008 C 3148.9155 829.29018 2951.1606 717.19229 2936.6699 709.86719 C 2932.7251 707.87299 2925.8748 704.87929 2921.4473 703.21289 C 2913.9008 700.37229 2132.6661 256.89124 2112.9297 244.24414 C 2094.5516 232.46744 1915.7571 132.26011 1904.3086 127.32031 C 1862.1527 109.13071 1812.0111 100.1122 1762.0312 100.24219 z M 1420.6641 917.05664 C 1441.3518 917.26444 1562.5542 961.87269 1576.4688 974.40039 C 1593.7795 989.98569 1594.9413 1002.6219 1584.1973 1058.4844 C 1573.1859 1115.7374 1571.6898 1137.4536 1577.9883 1148.6445 C 1580.2176 1152.6056 1602.9559 1175.3306 1628.5195 1199.1445 C 1683.3421 1250.2148 1680.3405 1249.5871 1762.5 1227.2188 L 1818.9727 1211.8438 L 1836.0566 1221.1816 C 1851.1651 1229.4406 1856.9678 1238.9655 1886.2266 1303.5273 C 1918.7942 1375.39 1919.2087 1376.8089 1912.6816 1394.1328 C 1907.3302 1408.3366 1896.4143 1418.2917 1856.1094 1445.7344 C 1828.6422 1464.4363 1802.5044 1485.7908 1798.0254 1493.1875 C 1791.0137 1504.7667 1790.2778 1515.2856 1792.7266 1568.8633 C 1794.3171 1603.6618 1798.2252 1636.345 1801.5938 1643.0117 C 1805.3284 1650.4034 1827.9187 1666.4939 1861.043 1685.3555 C 1938.8599 1729.6661 1938.377 1727.6258 1897.166 1838.5293 C 1864.7355 1925.8039 1859.1238 1928.8852 1767.3516 1909.8359 C 1741.4908 1904.4681 1713.6376 1901.2948 1705.4551 1902.7832 C 1683.2813 1906.817 1598.7324 1999.7339 1598.7324 2020.0684 C 1598.7324 2028.0367 1605.1441 2059.2502 1612.9805 2089.4316 C 1625.7321 2138.5429 1626.5597 2145.9045 1620.8711 2159.5137 C 1612.2108 2180.2314 1609.889 2181.7764 1537.6953 2214.8301 C 1470.7587 2245.4768 1449.4142 2249.6697 1432.3652 2235.5215 C 1426.8343 2230.9316 1407.8202 2205.7498 1390.1113 2179.5625 C 1372.4025 2153.3755 1352.5492 2129.1753 1345.9922 2125.7832 C 1330.2162 2117.6217 1214.897 2122.608 1199.8184 2132.1035 C 1194.172 2135.6593 1175.9304 2162.1054 1159.2832 2190.873 C 1128.8093 2243.5341 1114.0659 2258.3527 1092.5156 2257.9785 C 1086.3632 2257.8711 1049.2423 2245.5326 1010.0254 2230.5586 C 946.27789 2206.218 937.72479 2201.616 929.30469 2187.1367 C 919.89529 2170.9558 919.89543 2170.8924 930.26953 2117.6621 C 947.24283 2030.5707 948.3459 2034.6807 894.1582 1983.1602 C 868.5862 1958.8465 840.79168 1936.6105 832.39258 1933.748 C 819.58268 1929.3817 808.64368 1930.8969 764.51758 1943.1445 C 697.72015 1961.6849 681.02846 1961.9349 665.53516 1944.6309 C 649.55936 1926.7879 597.50113 1811.0174 597.39453 1793.0957 C 597.26533 1771.4959 607.57638 1760.3832 661.02148 1724.5254 C 690.49298 1704.7522 712.019 1686.7632 715.5918 1678.9219 C 719.9023 1669.4613 720.61875 1648.5825 718.25195 1601.4238 C 714.39995 1524.6688 715.20554 1526.0208 652.14844 1490.4258 C 604.89134 1463.75 583.00195 1443.6104 583.00195 1426.8066 C 583.00195 1409.0875 632.59757 1280.5801 644.01367 1268.7188 C 659.40157 1252.7309 672.23872 1252.1494 736.76172 1264.5234 C 803.76335 1277.3728 817.88985 1275.4107 837.43555 1250.543 C 844.02945 1242.1536 862.28521 1221.8079 878.00391 1205.3301 C 893.72241 1188.8526 907.95325 1169.1358 909.62695 1161.5156 C 911.60205 1152.5232 907.53753 1129.1739 898.04883 1094.9883 C 890.00783 1066.0181 883.42969 1035.8759 883.42969 1028.0059 C 883.42969 1004.209 903.95552 988.13435 975.54102 955.87305 C 1063.5232 916.22215 1063.5225 916.22272 1112.3203 986.04492 C 1131.994 1014.195 1152.7749 1040.5034 1158.5 1044.5078 C 1166.9723 1050.4334 1181.4732 1051.4509 1236.4102 1049.9766 C 1318.1447 1047.7833 1317.7527 1047.9999 1354.0137 984.9082 C 1387.5431 926.5694 1397.1199 916.82024 1420.6641 917.05664 z M 1255.375 1303.6582 C 1231.8971 1303.6615 1208.3071 1305.5333 1191.957 1309.2754 C 1092.6767 1331.9965 1010.9758 1410.3317 980.65039 1511.875 C 967.56099 1555.7043 969.38195 1625.6404 984.84375 1672.9785 C 1017.338 1772.4638 1103.8199 1848.9586 1204.127 1866.9395 C 1243.7234 1874.0375 1306.2713 1868.9778 1346.2871 1855.4395 L 1346.2852 1855.4375 C 1445.0497 1822.0232 1517.3376 1735.6372 1535.2051 1629.6699 C 1541.8842 1590.0578 1541.8862 1581.5353 1535.2324 1542.0703 C 1515.6409 1425.878 1431.7953 1335.9672 1318.125 1309.2578 C 1302.2193 1305.5204 1278.8529 1303.6549 1255.375 1303.6582 z M 2672.6914 1729.5918 C 2677.8533 1729.575 2684.0928 1730.1002 2691.752 1730.9668 C 2735.4389 1735.9093 2738.4473 1738.4939 2738.4473 1771.1035 C 2738.4473 1800.3891 2742.5702 1806.9362 2772.8516 1825.7266 C 2789.738 1836.205 2801.4681 1835.862 2824.2832 1824.2227 C 2834.5653 1818.9771 2847.0961 1814.6855 2852.1309 1814.6855 C 2862.8232 1814.6855 2900.582 1862.1411 2900.582 1875.5801 C 2900.582 1880.4476 2893.9593 1890.7341 2885.8652 1898.4375 C 2863.116 1920.0885 2860.9283 1926.7553 2867.4453 1954.5664 C 2874.9209 1986.4684 2877.6182 1989.4124 2908.2012 1999.0527 C 2923.2726 2003.8036 2934.9409 2010.5385 2936.4746 2015.3711 C 2940.041 2026.6075 2930.8722 2081.1159 2924.0293 2089.3613 C 2920.5834 2093.5134 2909.1376 2096.0371 2893.7559 2096.0371 C 2865.0091 2096.0371 2858.471 2100.2482 2841.7246 2129.5527 L 2829.3828 2151.1484 L 2841.1387 2176.5215 C 2847.6042 2190.4768 2852.8945 2205.562 2852.8945 2210.043 C 2852.8945 2218.9938 2802.7299 2258.1719 2791.2695 2258.1719 C 2787.3314 2258.1719 2774.9121 2249.1446 2763.6699 2238.1113 L 2743.2285 2218.0508 L 2716.459 2223.666 C 2684.2344 2230.4252 2678.5936 2234.6425 2671.3965 2257.3613 C 2663.4069 2282.5826 2653.6025 2296.4033 2644.1543 2295.7637 C 2639.625 2295.4571 2624.2961 2293.2774 2610.0898 2290.9199 C 2575.0717 2285.1089 2571.543 2281.2153 2571.543 2248.3965 C 2571.543 2218.1683 2568.035 2213.3475 2531.9492 2193.9512 L 2514.4961 2184.5684 L 2488.0742 2197.5273 C 2473.5422 2204.6543 2459.585 2210.4863 2457.0586 2210.4863 C 2450.7257 2210.4863 2409.4141 2157.1987 2409.4102 2149.0254 C 2409.4102 2145.3846 2417.9913 2133.0944 2428.4824 2121.7129 C 2449.4243 2098.9935 2450.2198 2095.1502 2441.2188 2060.2715 C 2435.2447 2037.1228 2434.2784 2036.1469 2408.041 2026.7637 C 2393.1776 2021.4481 2378.6175 2014.6994 2375.6855 2011.7676 C 2369.2208 2005.3029 2377.1414 1946.4356 2385.8945 1935.8887 C 2389.471 1931.5795 2400.8682 1929.1328 2417.3711 1929.1328 C 2445.9923 1929.1328 2455.8464 1922.0539 2473.4707 1888.8262 L 2482.6934 1871.4375 L 2469.7188 1844.9844 C 2462.5828 1830.4347 2457.9463 1814.9823 2459.4141 1810.6465 C 2463.1839 1799.5108 2509.4636 1766.998 2521.5449 1766.998 C 2527.0805 1766.998 2537.9118 1773.6208 2545.6152 1781.7148 C 2566.69 1803.8585 2572.9722 1805.9581 2598.7305 1799.4727 C 2628.4869 1791.9808 2635.946 1785.2965 2643.1133 1759.6973 C 2649.572 1736.6291 2654.2561 1729.6518 2672.6914 1729.5918 z M 2652.1719 1893.5566 C 2644.8904 1893.6426 2637.5751 1894.4185 2630.3242 1895.9238 C 2562.5814 1909.9871 2521.5272 1983.8762 2544.9648 2049.5527 C 2568.3651 2115.1246 2646.7746 2144.5669 2710.0156 2111.5293 C 2770.374 2079.9977 2789.8512 2003.3303 2752.0156 1946.209 C 2729.8474 1912.7411 2691.4919 1893.0925 2652.1719 1893.5566 z M 2031.0371 1919.5957 C 2092.0139 1919.5957 2095.4677 1922.1437 2103.6973 1973.1582 C 2107.5896 1997.2865 2112.5726 2011.9736 2118.7656 2017.5781 C 2130.5383 2028.2323 2179.4869 2048.299 2193.7734 2048.3281 C 2199.7569 2048.3451 2219.0472 2038.6932 2236.6406 2026.8906 C 2254.234 2015.0881 2271.5818 2005.4316 2275.1895 2005.4316 C 2286.3228 2005.4316 2356.9512 2077.5028 2356.9512 2088.8633 C 2356.9512 2094.4992 2347.3191 2112.9032 2335.5449 2129.7617 C 2323.7707 2146.6203 2314.1235 2165.779 2314.1074 2172.3359 C 2314.0734 2186.2188 2333.8611 2236.8833 2343.8945 2248.6016 C 2348.1088 2253.5235 2364.9091 2258.9172 2387.252 2262.5215 C 2407.3139 2265.7579 2426.9428 2271.6206 2430.873 2275.5508 C 2436.348 2281.0258 2438.0195 2294.8559 2438.0195 2334.7012 C 2438.0195 2395.9454 2437.428 2396.7152 2383.2695 2405.8301 C 2364.959 2408.9117 2347.097 2413.8235 2343.5781 2416.7441 C 2335.1182 2423.765 2309.2656 2481.0969 2309.2656 2492.8359 C 2309.2656 2497.9044 2318.9221 2515.5832 2330.7246 2532.123 C 2359.4809 2572.4212 2358.8833 2580.895 2324.7637 2616.6699 C 2278.4667 2665.2129 2271.0055 2666.2116 2223.4277 2630.2441 C 2204.2851 2615.7727 2193.9806 2611.0092 2185.2793 2612.6094 C 2169.9317 2615.4316 2121.331 2636.1654 2112.0957 2643.8301 C 2108.1847 2647.0758 2102.4562 2665.1706 2099.3652 2684.041 C 2090.3356 2739.1658 2089.5183 2739.8086 2028.543 2739.8086 C 1984.2245 2739.8086 1975.7978 2738.5515 1968.8809 2730.9082 C 1964.4509 2726.0132 1958.6719 2708.3113 1956.0391 2691.5684 C 1953.4062 2674.8255 1950.072 2657.2302 1948.6289 2652.4688 C 1945.8256 2643.2198 1880.7535 2611.0547 1864.8457 2611.0547 C 1859.7417 2611.0547 1842.032 2620.7112 1825.4922 2632.5137 C 1808.9525 2644.3161 1790.274 2653.9727 1783.9844 2653.9727 C 1767.6663 2653.9727 1703.6426 2589.0744 1703.6426 2572.5332 C 1703.6426 2565.8945 1713.2993 2546.7473 1725.1016 2529.9863 C 1736.9042 2513.2253 1746.5605 2496.3447 1746.5605 2492.4727 C 1746.5605 2481.8461 1722.6918 2423.8318 1714.5078 2414.5664 C 1710.1788 2409.6655 1692.9104 2404.0194 1670.9883 2400.3359 C 1620.0669 2391.7797 1617.8066 2388.7057 1617.8066 2328.0566 C 1617.8066 2268.4773 1619.73 2265.8647 1669.623 2257.625 C 1688.7967 2254.4585 1708.4108 2248.4583 1713.2109 2244.291 C 1725.0104 2234.0468 1751.4531 2168.7644 1747.8262 2158.832 C 1746.2283 2154.4564 1736.4381 2138.2616 1726.0703 2122.8418 C 1715.7023 2107.422 1707.2187 2089.5051 1707.2188 2083.0273 C 1707.2188 2069.1423 1766.3309 2006.7076 1783.6289 2002.3223 C 1791.5831 2000.3057 1804.083 2006.0688 1830.5703 2023.9629 C 1850.4254 2037.3766 1868.4712 2048.3496 1870.6719 2048.3496 C 1877.7128 2048.3496 1940.9677 2021.827 1948.1582 2015.8594 C 1951.9701 2012.6958 1957.7373 1993.4978 1960.9727 1973.1973 C 1969.2718 1921.1234 1971.2673 1919.5957 2031.0371 1919.5957 z M 2027.9121 2165.1836 C 1982.8863 2165.1836 1975.4177 2166.4622 1953.7812 2177.8828 C 1923.0845 2194.0858 1892.2967 2224.8735 1876.0938 2255.5703 C 1864.6732 2277.2068 1863.3926 2284.6773 1863.3926 2329.7031 C 1863.3926 2374.8717 1864.6506 2382.1579 1876.2422 2404.1289 C 1893.6433 2437.1116 1909.2054 2454.7303 1936.2852 2472.1074 C 1984.416 2502.993 2047.3325 2507.9673 2097.8945 2484.8848 C 2149.4635 2461.3426 2184.5695 2415.3738 2195.25 2357.4082 C 2200.2761 2330.1308 2199.9818 2320.9888 2193.1934 2293.4805 C 2179.8528 2239.4204 2152.2766 2204.3791 2102.3398 2178.0332 C 2080.3688 2166.4416 2073.0808 2165.1836 2027.9121 2165.1836 z "
       transform="translate(0,-2490.9449)"
       id="path4197" />
    <path
       id="path4213"
       transform="translate(0,-2490.9449)"
       d="M 1762.0312 100.24219 C 1712.0514 100.37218 1662.2337 109.64949 1620.7285 128.05664 C 1613.5487 131.24074 1519.3732 183.64572 1411.4492 244.51172 C 1161.3019 385.58772 743.89937 620.91238 551.73242 729.20508 C 469.79693 775.37848 394.28875 817.96751 383.93555 823.84961 C 343.03985 847.08401 310.46746 876.96222 281.41406 917.89062 C 248.83752 963.78222 227.57812 1013.4987 217.43164 1067.5215 C 215.20623 1079.3706 215.07053 1114.3578 214.68359 1771.0449 C 214.39234 2265.2367 214.68594 2466.2121 215.71484 2476.5371 C 224.83309 2568.0492 284.49332 2669.7798 359.44531 2721.6211 C 365.2205 2725.6157 462.97284 2781.3103 576.67188 2845.3867 C 690.37092 2909.463 898.86879 3026.9887 1040 3106.5566 C 1181.1312 3186.1246 1366.5918 3290.6857 1452.1367 3338.9141 C 1537.6818 3387.1423 1612.6042 3428.8874 1618.6289 3431.6797 C 1635.5122 3439.5045 1662.5449 3448.0394 1684.0195 3452.3242 C 1700.9608 3455.7045 1710.2707 3457.0149 1734.9902 3459.5039 C 1746.5652 3460.6694 1801.3427 3458.9786 1815.5527 3457.0176 C 1849.9605 3452.2689 1884.2365 3442.7342 1909.2676 3430.9473 C 1915.9248 3427.8125 2051.9038 3351.4231 2211.4434 3261.1934 C 2370.983 3170.9636 2592.4759 3045.7157 2703.6484 2982.8652 C 2814.8208 2920.0146 2962.0512 2836.7737 3030.8281 2797.8848 C 3099.605 2758.996 3161.622 2723.056 3168.6445 2718.0176 C 3185.5507 2705.8878 3219.07 2672.3538 3233.5586 2653.0742 C 3269.1668 2605.691 3292.382 2555.022 3303.918 2499.5059 L 3307.3262 2483.0996 L 3307.748 1789.4199 C 3308.0389 1311.4594 3307.7421 1091.6976 3306.793 1082.7402 C 3296.9061 989.43323 3234.8262 886.00428 3158.4434 835.58008 C 3148.9155 829.29018 2951.1606 717.19229 2936.6699 709.86719 C 2932.7251 707.87299 2925.8748 704.87929 2921.4473 703.21289 C 2913.9008 700.37229 2132.6661 256.89124 2112.9297 244.24414 C 2094.5516 232.46744 1915.7571 132.26011 1904.3086 127.32031 C 1862.1527 109.13071 1812.0111 100.1122 1762.0312 100.24219 z M 1420.6641 917.05664 C 1441.3518 917.26444 1562.5542 961.87269 1576.4688 974.40039 C 1593.7795 989.98569 1594.9413 1002.6219 1584.1973 1058.4844 C 1573.1859 1115.7374 1571.6898 1137.4536 1577.9883 1148.6445 C 1580.2176 1152.6056 1602.9559 1175.3306 1628.5195 1199.1445 C 1683.3421 1250.2148 1680.3405 1249.5871 1762.5 1227.2188 L 1818.9727 1211.8438 L 1836.0566 1221.1816 C 1851.1651 1229.4406 1856.9678 1238.9655 1886.2266 1303.5273 C 1918.7942 1375.39 1919.2087 1376.8089 1912.6816 1394.1328 C 1907.3302 1408.3366 1896.4143 1418.2917 1856.1094 1445.7344 C 1828.6422 1464.4363 1802.5044 1485.7908 1798.0254 1493.1875 C 1791.0137 1504.7667 1790.2778 1515.2856 1792.7266 1568.8633 C 1794.3171 1603.6618 1798.2252 1636.345 1801.5938 1643.0117 C 1805.3284 1650.4034 1827.9187 1666.4939 1861.043 1685.3555 C 1938.8599 1729.6661 1938.377 1727.6258 1897.166 1838.5293 C 1864.7355 1925.8039 1859.1238 1928.8852 1767.3516 1909.8359 C 1741.4908 1904.4681 1713.6376 1901.2948 1705.4551 1902.7832 C 1683.2813 1906.817 1598.7324 1999.7339 1598.7324 2020.0684 C 1598.7324 2028.0367 1605.1441 2059.2502 1612.9805 2089.4316 C 1625.7321 2138.5429 1626.5597 2145.9045 1620.8711 2159.5137 C 1612.2108 2180.2314 1609.889 2181.7764 1537.6953 2214.8301 C 1470.7587 2245.4768 1449.4142 2249.6697 1432.3652 2235.5215 C 1426.8343 2230.9316 1407.8202 2205.7498 1390.1113 2179.5625 C 1372.4025 2153.3755 1352.5492 2129.1753 1345.9922 2125.7832 C 1330.2162 2117.6217 1214.897 2122.608 1199.8184 2132.1035 C 1194.172 2135.6593 1175.9304 2162.1054 1159.2832 2190.873 C 1128.8093 2243.5341 1114.0659 2258.3527 1092.5156 2257.9785 C 1086.3632 2257.8711 1049.2423 2245.5326 1010.0254 2230.5586 C 946.27789 2206.218 937.72479 2201.616 929.30469 2187.1367 C 919.89529 2170.9558 919.89543 2170.8924 930.26953 2117.6621 C 947.24283 2030.5707 948.3459 2034.6807 894.1582 1983.1602 C 868.5862 1958.8465 840.79168 1936.6105 832.39258 1933.748 C 819.58268 1929.3817 808.64368 1930.8969 764.51758 1943.1445 C 697.72015 1961.6849 681.02846 1961.9349 665.53516 1944.6309 C 649.55936 1926.7879 597.50113 1811.0174 597.39453 1793.0957 C 597.26533 1771.4959 607.57638 1760.3832 661.02148 1724.5254 C 690.49298 1704.7522 712.019 1686.7632 715.5918 1678.9219 C 719.9023 1669.4613 720.61875 1648.5825 718.25195 1601.4238 C 714.39995 1524.6688 715.20554 1526.0208 652.14844 1490.4258 C 604.89134 1463.75 583.00195 1443.6104 583.00195 1426.8066 C 583.00195 1409.0875 632.59757 1280.5801 644.01367 1268.7188 C 659.40157 1252.7309 672.23872 1252.1494 736.76172 1264.5234 C 803.76335 1277.3728 817.88985 1275.4107 837.43555 1250.543 C 844.02945 1242.1536 862.28521 1221.8079 878.00391 1205.3301 C 893.72241 1188.8526 907.95325 1169.1358 909.62695 1161.5156 C 911.60205 1152.5232 907.53753 1129.1739 898.04883 1094.9883 C 890.00783 1066.0181 883.42969 1035.8759 883.42969 1028.0059 C 883.42969 1004.209 903.95552 988.13435 975.54102 955.87305 C 1063.5232 916.22215 1063.5225 916.22272 1112.3203 986.04492 C 1131.994 1014.195 1152.7749 1040.5034 1158.5 1044.5078 C 1166.9723 1050.4334 1181.4732 1051.4509 1236.4102 1049.9766 C 1318.1447 1047.7833 1317.7527 1047.9999 1354.0137 984.9082 C 1387.5431 926.5694 1397.1199 916.82024 1420.6641 917.05664 z M 1255.375 1303.6582 C 1231.8971 1303.6615 1208.3071 1305.5333 1191.957 1309.2754 C 1092.6767 1331.9965 1010.9758 1410.3317 980.65039 1511.875 C 967.56099 1555.7043 969.38195 1625.6404 984.84375 1672.9785 C 1017.338 1772.4638 1103.8199 1848.9586 1204.127 1866.9395 C 1243.7234 1874.0375 1306.2713 1868.9778 1346.2871 1855.4395 L 1346.2852 1855.4375 C 1445.0497 1822.0232 1517.3376 1735.6372 1535.2051 1629.6699 C 1541.8842 1590.0578 1541.8862 1581.5353 1535.2324 1542.0703 C 1515.6409 1425.878 1431.7953 1335.9672 1318.125 1309.2578 C 1302.2193 1305.5204 1278.8529 1303.6549 1255.375 1303.6582 z M 2672.6914 1729.5918 C 2677.8533 1729.575 2684.0928 1730.1002 2691.752 1730.9668 C 2735.4389 1735.9093 2738.4473 1738.4939 2738.4473 1771.1035 C 2738.4473 1800.3891 2742.5702 1806.9362 2772.8516 1825.7266 C 2789.738 1836.205 2801.4681 1835.862 2824.2832 1824.2227 C 2834.5653 1818.9771 2847.0961 1814.6855 2852.1309 1814.6855 C 2862.8232 1814.6855 2900.582 1862.1411 2900.582 1875.5801 C 2900.582 1880.4476 2893.9593 1890.7341 2885.8652 1898.4375 C 2863.116 1920.0885 2860.9283 1926.7553 2867.4453 1954.5664 C 2874.9209 1986.4684 2877.6182 1989.4124 2908.2012 1999.0527 C 2923.2726 2003.8036 2934.9409 2010.5385 2936.4746 2015.3711 C 2940.041 2026.6075 2930.8722 2081.1159 2924.0293 2089.3613 C 2920.5834 2093.5134 2909.1376 2096.0371 2893.7559 2096.0371 C 2865.0091 2096.0371 2858.471 2100.2482 2841.7246 2129.5527 L 2829.3828 2151.1484 L 2841.1387 2176.5215 C 2847.6042 2190.4768 2852.8945 2205.562 2852.8945 2210.043 C 2852.8945 2218.9938 2802.7299 2258.1719 2791.2695 2258.1719 C 2787.3314 2258.1719 2774.9121 2249.1446 2763.6699 2238.1113 L 2743.2285 2218.0508 L 2716.459 2223.666 C 2684.2344 2230.4252 2678.5936 2234.6425 2671.3965 2257.3613 C 2663.4069 2282.5826 2653.6025 2296.4033 2644.1543 2295.7637 C 2639.625 2295.4571 2624.2961 2293.2774 2610.0898 2290.9199 C 2575.0717 2285.1089 2571.543 2281.2153 2571.543 2248.3965 C 2571.543 2218.1683 2568.035 2213.3475 2531.9492 2193.9512 L 2514.4961 2184.5684 L 2488.0742 2197.5273 C 2473.5422 2204.6543 2459.585 2210.4863 2457.0586 2210.4863 C 2450.7257 2210.4863 2409.4141 2157.1987 2409.4102 2149.0254 C 2409.4102 2145.3846 2417.9913 2133.0944 2428.4824 2121.7129 C 2449.4243 2098.9935 2450.2198 2095.1502 2441.2188 2060.2715 C 2435.2447 2037.1228 2434.2784 2036.1469 2408.041 2026.7637 C 2393.1776 2021.4481 2378.6175 2014.6994 2375.6855 2011.7676 C 2369.2208 2005.3029 2377.1414 1946.4356 2385.8945 1935.8887 C 2389.471 1931.5795 2400.8682 1929.1328 2417.3711 1929.1328 C 2445.9923 1929.1328 2455.8464 1922.0539 2473.4707 1888.8262 L 2482.6934 1871.4375 L 2469.7188 1844.9844 C 2462.5828 1830.4347 2457.9463 1814.9823 2459.4141 1810.6465 C 2463.1839 1799.5108 2509.4636 1766.998 2521.5449 1766.998 C 2527.0805 1766.998 2537.9118 1773.6208 2545.6152 1781.7148 C 2566.69 1803.8585 2572.9722 1805.9581 2598.7305 1799.4727 C 2628.4869 1791.9808 2635.946 1785.2965 2643.1133 1759.6973 C 2649.572 1736.6291 2654.2561 1729.6518 2672.6914 1729.5918 z M 2652.1719 1893.5566 C 2644.8904 1893.6426 2637.5751 1894.4185 2630.3242 1895.9238 C 2562.5814 1909.9871 2521.5272 1983.8762 2544.9648 2049.5527 C 2568.3651 2115.1246 2646.7746 2144.5669 2710.0156 2111.5293 C 2770.374 2079.9977 2789.8512 2003.3303 2752.0156 1946.209 C 2729.8474 1912.7411 2691.4919 1893.0925 2652.1719 1893.5566 z M 2031.0371 1919.5957 C 2092.0139 1919.5957 2095.4677 1922.1437 2103.6973 1973.1582 C 2107.5896 1997.2865 2112.5726 2011.9736 2118.7656 2017.5781 C 2130.5383 2028.2323 2179.4869 2048.299 2193.7734 2048.3281 C 2199.7569 2048.3451 2219.0472 2038.6932 2236.6406 2026.8906 C 2254.234 2015.0881 2271.5818 2005.4316 2275.1895 2005.4316 C 2286.3228 2005.4316 2356.9512 2077.5028 2356.9512 2088.8633 C 2356.9512 2094.4992 2347.3191 2112.9032 2335.5449 2129.7617 C 2323.7707 2146.6203 2314.1235 2165.779 2314.1074 2172.3359 C 2314.0734 2186.2188 2333.8611 2236.8833 2343.8945 2248.6016 C 2348.1088 2253.5235 2364.9091 2258.9172 2387.252 2262.5215 C 2407.3139 2265.7579 2426.9428 2271.6206 2430.873 2275.5508 C 2436.348 2281.0258 2438.0195 2294.8559 2438.0195 2334.7012 C 2438.0195 2395.9454 2437.428 2396.7152 2383.2695 2405.8301 C 2364.959 2408.9117 2347.097 2413.8235 2343.5781 2416.7441 C 2335.1182 2423.765 2309.2656 2481.0969 2309.2656 2492.8359 C 2309.2656 2497.9044 2318.9221 2515.5832 2330.7246 2532.123 C 2359.4809 2572.4212 2358.8833 2580.895 2324.7637 2616.6699 C 2278.4667 2665.2129 2271.0055 2666.2116 2223.4277 2630.2441 C 2204.2851 2615.7727 2193.9806 2611.0092 2185.2793 2612.6094 C 2169.9317 2615.4316 2121.331 2636.1654 2112.0957 2643.8301 C 2108.1847 2647.0758 2102.4562 2665.1706 2099.3652 2684.041 C 2090.3356 2739.1658 2089.5183 2739.8086 2028.543 2739.8086 C 1984.2245 2739.8086 1975.7978 2738.5515 1968.8809 2730.9082 C 1964.4509 2726.0132 1958.6719 2708.3113 1956.0391 2691.5684 C 1953.4062 2674.8255 1950.072 2657.2302 1948.6289 2652.4688 C 1945.8256 2643.2198 1880.7535 2611.0547 1864.8457 2611.0547 C 1859.7417 2611.0547 1842.032 2620.7112 1825.4922 2632.5137 C 1808.9525 2644.3161 1790.274 2653.9727 1783.9844 2653.9727 C 1767.6663 2653.9727 1703.6426 2589.0744 1703.6426 2572.5332 C 1703.6426 2565.8945 1713.2993 2546.7473 1725.1016 2529.9863 C 1736.9042 2513.2253 1746.5605 2496.3447 1746.5605 2492.4727 C 1746.5605 2481.8461 1722.6918 2423.8318 1714.5078 2414.5664 C 1710.1788 2409.6655 1692.9104 2404.0194 1670.9883 2400.3359 C 1620.0669 2391.7797 1617.8066 2388.7057 1617.8066 2328.0566 C 1617.8066 2268.4773 1619.73 2265.8647 1669.623 2257.625 C 1688.7967 2254.4585 1708.4108 2248.4583 1713.2109 2244.291 C 1725.0104 2234.0468 1751.4531 2168.7644 1747.8262 2158.832 C 1746.2283 2154.4564 1736.4381 2138.2616 1726.0703 2122.8418 C 1715.7023 2107.422 1707.2187 2089.5051 1707.2188 2083.0273 C 1707.2188 2069.1423 1766.3309 2006.7076 1783.6289 2002.3223 C 1791.5831 2000.3057 1804.083 2006.0688 1830.5703 2023.9629 C 1850.4254 2037.3766 1868.4712 2048.3496 1870.6719 2048.3496 C 1877.7128 2048.3496 1940.9677 2021.827 1948.1582 2015.8594 C 1951.9701 2012.6958 1957.7373 1993.4978 1960.9727 1973.1973 C 1969.2718 1921.1234 1971.2673 1919.5957 2031.0371 1919.5957 z M 2027.9121 2165.1836 C 1982.8863 2165.1836 1975.4177 2166.4622 1953.7812 2177.8828 C 1923.0845 2194.0858 1892.2967 2224.8735 1876.0938 2255.5703 C 1864.6732 2277.2068 1863.3926 2284.6773 1863.3926 2329.7031 C 1863.3926 2374.8717 1864.6506 2382.1579 1876.2422 2404.1289 C 1893.6433 2437.1116 1909.2054 2454.7303 1936.2852 2472.1074 C 1984.416 2502.993 2047.3325 2507.9673 2097.8945 2484.8848 C 2149.4635 2461.3426 2184.5695 2415.3738 2195.25 2357.4082 C 2200.2761 2330.1308 2199.9818 2320.9888 2193.1934 2293.4805 C 2179.8528 2239.4204 2152.2766 2204.3791 2102.3398 2178.0332 C 2080.3688 2166.4416 2073.0808 2165.1836 2027.9121 2165.1836 z "
       style="fill:#000000;fill-opacity:1" />
  </g>
</svg>
